<?xml version="1.0" standalone="no"?><!DOCTYPE svg PUBLIC "-//W3C//DTD SVG 1.1//EN" "http://www.w3.org/Graphics/SVG/1.1/DTD/svg11.dtd"><svg t="1571886839310" class="icon" viewBox="0 0 1024 1024" version="1.1" xmlns="http://www.w3.org/2000/svg" p-id="6484" xmlns:xlink="http://www.w3.org/1999/xlink" width="64" height="64"><defs><style type="text/css"></style></defs><path d="M471.20896 893.12768c-1.4336 44.3648-34.95424 77.88032-79.31904 79.31392-44.34944 1.4336-77.95712-37.10976-79.31904-79.31392-1.4336-44.34944 37.11488-77.95712 79.31904-79.31904 44.34944-1.4336 77.952 37.11488 79.31904 79.31904 1.06496 32.93184 52.26496 33.03424 51.2 0-2.3552-72.69888-57.82016-128.16896-130.51904-130.51904-72.66304-2.35008-128.2816 61.35296-130.51904 130.51904-2.35008 72.65792 61.35808 128.2816 130.51904 130.51392 72.65792 2.35008 128.2816-61.35296 130.51904-130.51392 1.06496-33.03424-50.13504-32.92672-51.2 0zM909.33248 893.12768c-1.4336 44.3648-34.95424 77.88032-79.31904 79.31392-44.34432 1.4336-77.95712-37.10976-79.31904-79.31392-1.4336-44.34432 37.11488-77.95712 79.31904-79.31904 44.34944-1.4336 77.95712 37.10976 79.31904 79.31904 1.06496 32.93184 52.27008 33.03424 51.2 0-2.35008-72.69888-57.82016-128.16896-130.51904-130.51904-72.65792-2.35008-128.28672 61.35808-130.51904 130.51904-2.35008 72.65792 61.3632 128.2816 130.51904 130.51392 72.65792 2.35008 128.28672-61.35296 130.51904-130.51392 1.07008-33.03424-50.12992-32.92672-51.2 0zM864.70144 672.95232H430.86336c-34.97984 0-80.0256 3.97312-101.05856-29.7728-19.28704-30.9504-26.3424-71.63392-34.46784-106.78272-23.79264-102.96832-42.55744-207.13984-62.68928-310.8608-13.58848-70.016-17.2288-155.96544-80.4864-200.6784C130.48832 9.53856 101.91872 3.54304 75.78624 3.44576c-7.35232-0.0256-14.6688 0.91648-21.92896 2.01728C65.71008 3.66592 52.53632 4.3264 48.33792 4.1472 42.86976 3.90656 37.4016 3.67104 31.92832 3.44064c-33.024-1.408-32.89088 49.79712 0 51.2 11.776 0.50176 23.8592 2.11456 35.53792 0.18432-6.62016 1.09056-1.46432 0.21504 3.44064-0.05632 6.6304-0.36864 13.26592 0 19.8656 0.65024 42.56768 4.18304 63.73376 41.48224 71.74656 79.5136 21.02784 99.79392 38.97856 200.23808 59.0848 300.22144 9.23648 45.93664 18.61632 91.88864 29.70112 137.41568 8.84224 36.30592 18.67264 76.8768 41.56928 107.04896 28.5696 37.65248 74.19392 43.51488 118.60992 44.47744 35.23072 0.75776 70.54848 0.0512 105.78432 0.0512h347.42784c33.01888 0.00512 33.01888-51.19488 0.00512-51.19488z" p-id="6485" fill="#feba85"></path><path d="M388.57728 172.3392h533.45792c19.92704 0 13.20448 14.16192 9.56416 26.72128l-26.99776 93.1328-60.33408 208.128c-3.67616 12.66688-4.13696 35.7376-19.38432 35.7376H286.99648c-33.01888 0-33.01888 51.2 0 51.2H823.84896c8.2944 0 16.31744-0.96256 24.32-3.40992 27.30496-8.34048 34.46784-31.9744 41.32352-55.62368l16.41984-56.64768 65.19296-224.8704 15.42656-53.1968c11.20256-38.63552-29.97248-72.3712-64.49664-72.3712H388.57728c-33.01888 0-33.01888 51.2 0 51.2z" p-id="6486" fill="#feba85"></path></svg>