<?xml version="1.0" standalone="no"?><!DOCTYPE svg PUBLIC "-//W3C//DTD SVG 1.1//EN" "http://www.w3.org/Graphics/SVG/1.1/DTD/svg11.dtd"><svg t="1571886544315" class="icon" viewBox="0 0 1170 1024" version="1.1" xmlns="http://www.w3.org/2000/svg" p-id="3697" width="73.125" height="64" xmlns:xlink="http://www.w3.org/1999/xlink"><defs><style type="text/css"></style></defs><path d="M931.043899 591.31675a291.86054 291.86054 0 0 0-264.133789 83.180254A372.851839 372.851839 0 0 0 510.764722 544.619064a291.86054 291.86054 0 1 0-291.86054 0 378.68905 378.68905 0 0 0-218.895405 345.854739A133.526197 133.526197 0 0 0 132.805323 1024h901.849067A133.526197 133.526197 0 0 0 1167.450936 891.203454a300.616356 300.616356 0 0 0-236.407037-299.886704zM364.834452 148.418381a145.93027 145.93027 0 1 1-145.93027 145.93027 145.93027 145.93027 0 0 1 145.93027-145.93027zM145.939047 878.06973a218.895405 218.895405 0 0 1 437.79081 0z m583.721079 0a145.93027 145.93027 0 0 1 291.86054 0z" fill="#45c8c6" p-id="3698"></path><path d="M875.590396 440.278921m-145.93027 0a145.93027 145.93027 0 1 0 291.86054 0 145.93027 145.93027 0 1 0-291.86054 0Z" fill="#45c8c6" p-id="3699"></path></svg>